<?xml version="1.0" encoding="UTF-8"?>
<svg id="Layer_2" data-name="Layer 2" xmlns="http://www.w3.org/2000/svg" viewBox="0 0 232.53 232.52">
  <defs>
    <style>
      .cls-1 {
        fill: #fff;
        font-family: MyriadPro-Regular, 'Myriad Pro';
        font-size: 21px;
      }
    </style>
  </defs>
  <g id="Layer_1-2" data-name="Layer 1">
    <text class="cls-1" transform="translate(140.04 177.07) rotate(164.67)"><tspan x="0" y="0">G</tspan></text>
    <text class="cls-1" transform="translate(112.54 181.29) rotate(-172.23)"><tspan x="0" y="0">E</tspan></text>
    <text class="cls-1" transform="translate(88.25 175.08) rotate(-149.87)"><tspan x="0" y="0">T</tspan></text>
    <text class="cls-1" transform="translate(68.19 159.96) rotate(-130.38)"><tspan x="0" y="0"> </tspan></text>
    <text class="cls-1" transform="translate(57.37 144.08) rotate(-110.72)"><tspan x="0" y="0">F</tspan></text>
    <text class="cls-1" transform="translate(51.22 120.21) rotate(-88.54)"><tspan x="0" y="0">R</tspan></text>
    <text class="cls-1" transform="translate(54.76 94.78) rotate(-66.17)"><tspan x="0" y="0">E</tspan></text>
    <text class="cls-1" transform="translate(67.25 73.38) rotate(-44.35)"><tspan x="0" y="0">E</tspan></text>
    <text class="cls-1" transform="translate(87.1 58.19) rotate(-24.66)"><tspan x="0" y="0"> </tspan></text>
    <text class="cls-1" transform="translate(104.27 51.84) rotate(-2.77)"><tspan x="0" y="0">W</tspan></text>
    <text class="cls-1" transform="translate(135.92 54.15) rotate(22.12)"><tspan x="0" y="0">E</tspan></text>
    <text class="cls-1" transform="translate(157.69 65.95) rotate(44.41)"><tspan x="0" y="0">B</tspan></text>
    <text class="cls-1" transform="translate(173.92 85.91) rotate(66.84)"><tspan x="0" y="0">S</tspan></text>
    <text class="cls-1" transform="translate(180.93 109.93) rotate(86.61)"><tspan x="0" y="0">I</tspan></text>
    <text class="cls-1" transform="translate(180.02 129.67) rotate(106.44)"><tspan x="0" y="0">T</tspan></text>
    <text class="cls-1" transform="translate(170.34 152.57) rotate(128.47)"><tspan x="0" y="0">E</tspan></text>
  </g>
</svg>