<svg width="222" height="51" viewBox="0 0 222 51" fill="none" xmlns="http://www.w3.org/2000/svg">
<path d="M17.388 17.858C22.722 17.858 26.796 20.924 26.796 27.98V41H18.816V29.282C18.816 26.006 17.388 24.62 15.078 24.62C12.516 24.62 10.542 26.216 10.542 29.996V41H2.562V18.236H10.164V20.714C11.97 18.824 14.532 17.858 17.388 17.858ZM55.4023 29.66C55.4023 30.248 55.3183 31.004 55.2763 31.634H38.7283C39.4003 33.944 41.3743 35.288 44.3143 35.288C46.5403 35.288 48.0103 34.658 49.5643 33.314L53.7643 37.682C51.5803 40.118 48.3883 41.378 44.0623 41.378C35.9563 41.378 30.7063 36.38 30.7063 29.576C30.7063 22.73 36.0403 17.858 43.2223 17.858C49.9423 17.858 55.4023 22.142 55.4023 29.66ZM43.2643 23.528C40.7863 23.528 39.0643 25.04 38.6023 27.434H47.9263C47.5063 25.04 45.7423 23.528 43.2643 23.528ZM66.6835 20.966C68.3215 18.908 70.9675 17.858 74.3275 17.858V25.04C73.6135 24.956 73.1095 24.914 72.5215 24.914C69.2875 24.914 67.0615 26.552 67.0615 30.542V41H59.0815V18.236H66.6835V20.966ZM88.8395 41.378C81.4055 41.378 75.9875 36.464 75.9875 29.576C75.9875 22.73 81.4055 17.858 88.8395 17.858C96.3575 17.858 101.692 22.73 101.692 29.576C101.692 36.464 96.3575 41.378 88.8395 41.378ZM88.8395 35.036C91.5695 35.036 93.6275 33.062 93.6275 29.576C93.6275 26.132 91.5695 24.2 88.8395 24.2C86.1515 24.2 84.0515 26.132 84.0515 29.576C84.0515 33.062 86.1515 35.036 88.8395 35.036ZM148.901 19.076H150.833L142.517 41H140.543L133.151 21.974L125.717 41H123.785L115.469 19.076H117.485L124.793 38.648L132.269 19.076H134.075L141.509 38.606L148.901 19.076ZM177.446 29.954C177.446 30.122 177.404 30.332 177.404 30.542H158.546C158.756 35.75 162.578 39.278 167.828 39.278C170.6 39.278 173.162 38.27 174.842 36.212L176.06 37.598C174.128 39.95 171.104 41.168 167.786 41.168C161.15 41.168 156.488 36.548 156.488 30.038C156.488 23.528 160.982 18.908 166.988 18.908C172.994 18.908 177.446 23.444 177.446 29.954ZM166.988 20.756C162.326 20.756 158.924 24.116 158.588 28.904H175.388C175.094 24.158 171.65 20.756 166.988 20.756ZM198.727 18.908C204.901 18.908 209.563 23.444 209.563 30.038C209.563 36.59 204.901 41.168 198.727 41.168C194.779 41.168 191.461 39.194 189.739 35.834V41H187.723V9.836H189.823V24.074C191.587 20.798 194.863 18.908 198.727 18.908ZM198.601 39.278C203.641 39.278 207.463 35.54 207.463 30.038C207.463 24.536 203.641 20.798 198.601 20.798C193.561 20.798 189.781 24.536 189.781 30.038C189.781 35.54 193.561 39.278 198.601 39.278Z" fill="white"/>
<path d="M217 41.356V37H221.136V41.356H217Z" fill="#FF52B5"/>
</svg>
